# xmcd
#
# Track frame offsets:
#	150
#	12103
#	24549
#	37070
#	49897
#	63336
#	76517
#	87410
#	99568
#	117914
#	132073
#	147848
#	161407
#	172477
#	184942
#	196739
#	209765
#	222145
#	235226
#	248624
#
# Disc length: 3550 seconds
#
# Revision: 1
# Processed by: cddbd v1.5.1PL0 Copyright (c) Steve Scherf et al.
# Submitted via: audiograbber 1.83.01
#
DISCID=150ddc14
DTITLE=Merle Haggard - 40 Greatest Hits, Vol. 2
DYEAR=1900
DGENRE=Country
TTITLE0=Turnin' Off A Memory
TTITLE1=Everybody's Had the Blues
TTITLE2=If We Make It Through December
TTITLE3=The Emptiest Arms in the World
TTITLE4=Holding Things Together
TTITLE5=Kentucky Gambler
TTITLE6=Old Man From the Mountain
TTITLE7=Things Aren't Funny Anymore
TTITLE8=It Makes No Difference Now
TTITLE9=Always Wanting You
TTITLE10=It's All In The Movies
TTITLE11=Cherokee Maiden
TTITLE12=Shackles and Chains
TTITLE13=The Roots of My Raising
TTITLE14=From Graceland to the Promised Land
TTITLE15=I'm Always on a Mountain When I Fall
TTITLE16=It's Been a Great Afternoon
TTITLE17=Misery and Gin
TTITLE18=The Way I Am
TTITLE19=I Think I'll Just Stay Here and Drink
EXTD=
EXTT0=
EXTT1=
EXTT2=
EXTT3=
EXTT4=
EXTT5=
EXTT6=
EXTT7=
EXTT8=
EXTT9=
EXTT10=
EXTT11=
EXTT12=
EXTT13=
EXTT14=
EXTT15=
EXTT16=
EXTT17=
EXTT18=
EXTT19=
PLAYORDER=
